<!-- icon666.com - MILLIONS vector ICONS FREE --><svg viewBox="0 0 32 32" xmlns="http://www.w3.org/2000/svg"><g id="Layer_2" data-name="Layer 2"><path d="m15.3 15.4a.5.5 0 0 0 .2-.4v-4a.5.5 0 0 0 -.5-.5h-4a.5.5 0 0 0 -.5.5v1a.5.5 0 0 0 1 0v-.5h3v3.25l-3.8 2.85a.5.5 0 0 0 -.2.4v3a.5.5 0 0 0 .5.5h4a.5.5 0 0 0 .5-.5v-1a.5.5 0 0 0 -1 0v.5h-3v-2.25z"></path><path d="m17 16.5h3.5v4.5a.5.5 0 0 0 1 0v-10a.5.5 0 0 0 -1 0v4.5h-3v-4.5a.5.5 0 0 0 -1 0v5a.5.5 0 0 0 .5.5z"></path><path d="m21.209 4.634a.5.5 0 0 0 -.418.908 11.513 11.513 0 1 1 -5.891-.984l-1.076 1.322a.5.5 0 0 0 .778.629l1.781-2.2a.5.5 0 0 0 -.073-.7l-2.2-1.781a.5.5 0 1 0 -.631.777l1.2.975a12.473 12.473 0 1 0 6.524 1.055z"></path></g></svg>